<?xml version="1.0" standalone="no"?>
<!DOCTYPE svg PUBLIC "-//W3C//DTD SVG 20010904//EN"
 "http://www.w3.org/TR/2001/REC-SVG-20010904/DTD/svg10.dtd">
<svg version="1.0" xmlns="http://www.w3.org/2000/svg"
 width="299.000000pt" height="342.000000pt" viewBox="0 0 299.000000 342.000000"
 preserveAspectRatio="xMidYMid meet">

<g transform="translate(0.000000,342.000000) scale(0.100000,-0.100000)"
fill="#000000" stroke="none">
<path d="M930 2944 c-139 -24 -221 -48 -347 -101 l-83 -35 0 -324 0 -323 83
39 c164 77 409 119 576 100 165 -19 243 -53 453 -197 235 -161 353 -201 562
-190 118 6 176 20 262 64 l54 27 0 323 0 322 -32 -19 c-89 -52 -274 -66 -414
-30 -51 13 -169 64 -334 144 -342 167 -427 193 -630 200 -69 3 -136 3 -150 0z
m588 -229 c21 -47 16 -55 -35 -55 -62 -1 -111 -19 -162 -59 -45 -36 -47 -35
-27 12 27 64 114 126 177 127 29 0 38 -5 47 -25z m57 15 c58 -22 74 -154 30
-247 -13 -29 -28 -53 -33 -53 -5 0 -21 9 -35 20 l-26 20 25 43 c28 50 33 137
10 192 -16 37 -12 41 29 25z m112 -98 c35 -59 40 -160 10 -206 -17 -25 -23
-27 -55 -21 -21 4 -38 8 -39 9 -1 1 10 25 24 54 27 55 36 139 20 195 -11 40 7
26 40 -31z m-147 -16 c0 -46 -10 -56 -54 -56 -57 0 -141 -43 -169 -86 -12 -19
-25 -34 -28 -34 -4 0 -10 16 -14 37 -6 33 -3 40 38 81 48 48 125 81 190 82 33
0 37 -3 37 -24z m-76 -121 c27 -49 79 -86 149 -105 l60 -16 -28 -22 c-33 -26
-48 -27 -106 -7 -55 20 -103 57 -135 105 -27 41 -25 56 10 70 31 13 30 13 50
-25z m-7 -135 c25 -16 61 -32 79 -36 50 -9 31 -24 -32 -24 -66 0 -118 20 -161
62 -39 37 -41 55 -12 92 l22 28 29 -46 c17 -25 50 -59 75 -76z"/>
<path d="M965 1944 c-159 -34 -286 -101 -408 -216 l-57 -54 0 -414 c0 -366 2
-426 19 -506 67 -325 331 -582 699 -681 88 -24 114 -27 277 -27 163 0 189 3
277 26 294 80 531 267 642 510 71 153 69 136 73 732 2 296 0 536 -4 534 -193
-95 -291 -117 -518 -118 l-120 0 33 -26 c30 -24 72 -90 72 -113 0 -5 -21 -2
-47 6 -83 25 -152 1 -179 -63 -12 -29 -12 -39 -1 -66 21 -49 43 -64 163 -109
247 -93 369 -180 434 -313 29 -58 34 -79 38 -164 5 -114 -11 -189 -63 -293
-97 -191 -295 -340 -540 -406 -89 -23 -119 -26 -265 -27 -131 -1 -179 3 -234
18 -281 75 -503 262 -590 496 -85 230 -73 489 34 708 46 93 63 117 149 202
153 154 342 243 563 266 37 4 66 10 63 14 -7 11 -137 59 -205 75 -60 14 -254
19 -305 9z"/>
<path d="M1503 1699 c-218 -75 -402 -252 -457 -438 -20 -70 -21 -202 0 -272
60 -205 280 -369 496 -369 192 1 339 81 382 208 22 63 20 167 -3 217 -28 62
-98 117 -203 160 -158 66 -240 170 -242 310 -1 76 14 117 62 167 14 15 24 30
21 32 -2 2 -27 -5 -56 -15z"/>
</g>
</svg>
